<svg xmlns="http://www.w3.org/2000/svg" height="1em" viewBox="0 0 512 512">
	<defs>
		<linearGradient id="grad1" x1="0%" y1="0%" x2="0%" y2="100%">
			<stop offset="0%" style="stop-color: #9c51ed; stop-opacity:1" />
			<stop offset="100%" style="stop-color: #e470da; stop-opacity:1" />
		</linearGradient>
	</defs>
	<!--! Font Awesome Free 6.4.0 by @fontawesome - https://fontawesome.com License - https://fontawesome.com/license (Commercial License) Copyright 2023 Fonticons, Inc. -->
	<path d="M225.8 468.2l-2.5-2.3L48.1 303.2C17.4 274.7 0 234.7 0 192.8v-3.3c0-70.4 50-130.8 119.2-144C158.6 37.9 198.9 47 231 69.6c9 6.4 17.4 13.8 25 22.3c4.2-4.8 8.7-9.2 13.5-13.3c3.7-3.2 7.5-6.2 11.5-9c0 0 0 0 0 0C313.1 47 353.4 37.9 392.8 45.4C462 58.6 512 119.1 512 189.5v3.3c0 41.9-17.4 81.9-48.1 110.4L288.7 465.9l-2.5 2.3c-8.2 7.6-19 11.9-30.2 11.9s-22-4.2-30.2-11.9z"
		fill="url(#grad1)"/>
</svg>